<svg version="1.1" xmlns="http://www.w3.org/2000/svg" xmlns:xlink="http://www.w3.org/1999/xlink" x="0px" y="0px" viewBox="0 0 201.713 50.539" enable-background="new 0 0 201.713 50.539" xml:space="preserve">
<g id="Layer_1">
    <g>
        <path fill-rule="evenodd" clip-rule="evenodd" fill="" d="M0,43.809h54.531v5.514H0V43.809z M0,25.733v-7.965L18.688,0
            l9.574,9.191l8.5-4.595l17.769,10.109v6.434l-17.769-10.11l-8.5,4.595l-9.574-7.659L0,25.733z M0,25.733h28.262l8.5-4.594h17.769
            v5.82H36.762l-8.5,4.595H0V25.733z M0,34.923h54.531v5.515H0V34.923z"></path>
        <path fill-rule="evenodd" clip-rule="evenodd" fill="" d="M66.583,25.952h3.637l3.231,4.607
            c0.177,0.248,0.229,0.336,0.229,0.477c0,0.071-0.035,0.142-0.247,0.142v0.247h3.919v-0.247c-0.371,0-0.512-0.177-0.759-0.53
            l-3.265-4.625c2.17-0.337,3.459-1.66,3.459-3.762c0-2.066-1.624-3.69-4.696-3.69h-8.51v0.248c0.424,0,0.494,0.14,0.494,0.529v11.3
            c0,0.388-0.07,0.53-0.494,0.53v0.247h3.496v-0.247c-0.424,0-0.495-0.142-0.495-0.53V25.952z M66.636,20.655h5.349
            c1.272,0,2.295,0.495,2.295,1.606c0,1.113-1.024,1.607-2.295,1.607h-5.349V20.655z"></path>
        <path fill="" d="M79.28,31.424h11.617c0.425,0,0.601,0.142,0.601,0.388h0.247v-2.894h-0.247
            c0,0.282-0.177,0.422-0.601,0.422h-8.651v-3.459h5.544c0.423,0,0.601,0.142,0.601,0.423h0.247v-2.967h-0.247
            c0,0.318-0.178,0.46-0.601,0.46h-5.544v-3.143h8.492c0.423,0,0.601,0.142,0.601,0.46h0.247v-2.931h-0.247
            c0,0.247-0.178,0.388-0.601,0.388H79.28v0.247c0.388,0,0.459,0.142,0.459,0.53v11.299c0,0.388-0.07,0.53-0.459,0.53V31.424z"></path>
        <path fill="" d="M106.274,19.702l-0.282-0.088c-0.054,0.053-0.089,0.123-0.318,0.123c-0.212,0-2.366-1.342-5.438-1.342
            c-3.425,0-6.55,1.237-6.55,4.202c0,5.862,10.258,1.571,10.258,5.032c0,0.971-1.094,1.889-4.308,1.889
            c-2.26,0-4.538-0.742-4.538-1.783c0-0.142,0.036-0.213,0.036-0.283l-0.283-0.14l-1.466,3.001l0.23,0.053
            c0.088-0.053,0.14-0.142,0.247-0.142c0.406,0,1.643,1.378,5.95,1.378c4.519,0,6.778-1.8,6.778-4.132
            c0-6.391-10.398-2.153-10.398-5.049c0-1.094,1.183-1.942,3.937-1.942c2.878,0,4.537,1.237,4.537,1.465
            c0,0.089-0.016,0.177-0.034,0.248l0.282,0.159L106.274,19.702z"></path>
        <path fill-rule="evenodd" clip-rule="evenodd" fill="" d="M115.685,18.395c-4.078,0-7.362,2.33-7.362,6.604
            c0,4.272,3.284,6.603,7.362,6.603c4.078,0,7.362-2.33,7.362-6.603C123.047,20.725,119.763,18.395,115.685,18.395 M115.685,20.478
            c2.683,0,4.855,1.571,4.855,4.52c0,2.948-2.172,4.519-4.855,4.519c-2.684,0-4.855-1.571-4.855-4.519
            C110.83,22.05,113.001,20.478,115.685,20.478"></path>
        <path fill="" d="M128.364,19.348c0-0.388,0.089-0.53,0.512-0.53v-0.247h-3.513v0.247c0.422,0,0.494,0.142,0.494,0.53v7.733
            c0,3.39,2.436,4.52,6.498,4.52c4.061,0,6.496-1.13,6.496-4.52v-7.733c0-0.388,0.071-0.53,0.495-0.53v-0.247h-3.513v0.247
            c0.424,0,0.512,0.142,0.512,0.53v7.309c0,2.084-0.813,2.859-3.99,2.859c-3.177,0-3.99-0.776-3.99-2.859V19.348z"></path>
        <path fill-rule="evenodd" clip-rule="evenodd" fill="" d="M145.033,25.952h3.637l3.231,4.607
            c0.177,0.248,0.23,0.336,0.23,0.477c0,0.071-0.036,0.142-0.248,0.142v0.247h3.92v-0.247c-0.371,0-0.512-0.177-0.759-0.53
            l-3.266-4.625c2.171-0.337,3.461-1.66,3.461-3.762c0-2.066-1.624-3.69-4.697-3.69h-8.51v0.248c0.424,0,0.495,0.14,0.495,0.529
            v11.3c0,0.388-0.071,0.53-0.495,0.53v0.247h3.496v-0.247c-0.423,0-0.495-0.142-0.495-0.53V25.952z M145.087,20.655h5.35
            c1.27,0,2.294,0.495,2.294,1.606c0,1.113-1.024,1.607-2.294,1.607h-5.35V20.655z"></path>
        <path fill="" d="M171.644,19.648l-0.248-0.088c-0.124,0.194-0.229,0.212-0.405,0.212c-0.372,0-2.454-1.377-5.562-1.377
            c-4.326,0-7.963,2.472-7.963,6.603c0,4.643,3.902,6.604,7.838,6.604c4.45,0,5.81-2.085,6.34-2.085
            c0.053,0,0.158,0.019,0.212,0.054l0.14-0.071l-1.818-2.595l-0.177,0.123c0.036,0.071,0.07,0.23,0.07,0.318
            c0,0.794-2.1,2.171-4.554,2.171c-3.019,0-5.544-1.27-5.544-4.519c0-3.249,2.525-4.519,5.331-4.519c2.208,0,4.345,1.13,4.345,1.552
            c0,0.089,0,0.178-0.019,0.283l0.264,0.142L171.644,19.648z"></path>
        <path fill="" d="M174.401,31.424h11.617c0.425,0,0.6,0.142,0.6,0.388h0.248v-2.894h-0.248c0,0.282-0.175,0.422-0.6,0.422
            h-8.651v-3.459h5.544c0.425,0,0.601,0.142,0.601,0.423h0.247v-2.967h-0.247c0,0.318-0.177,0.46-0.601,0.46h-5.544v-3.143h8.493
            c0.423,0,0.6,0.142,0.6,0.46h0.247v-2.931h-0.247c0,0.247-0.177,0.388-0.6,0.388h-11.459v0.247c0.39,0,0.459,0.142,0.459,0.53
            v11.299c0,0.388-0.069,0.53-0.459,0.53V31.424z"></path>
        <path fill="" d="M201.396,19.702l-0.283-0.088c-0.053,0.053-0.088,0.123-0.318,0.123c-0.212,0-2.364-1.342-5.436-1.342
            c-3.427,0-6.551,1.237-6.551,4.202c0,5.862,10.258,1.571,10.258,5.032c0,0.971-1.094,1.889-4.306,1.889
            c-2.26,0-4.538-0.742-4.538-1.783c0-0.142,0.036-0.213,0.036-0.283l-0.284-0.14l-1.465,3.001l0.229,0.053
            c0.088-0.053,0.142-0.142,0.247-0.142c0.407,0,1.643,1.378,5.95,1.378c4.52,0,6.779-1.8,6.779-4.132
            c0-6.391-10.398-2.153-10.398-5.049c0-1.094,1.183-1.942,3.937-1.942c2.878,0,4.537,1.237,4.537,1.465
            c0,0.089-0.018,0.177-0.036,0.248l0.283,0.159L201.396,19.702z"></path>
        <path fill="" d="M64.131,41.389c0.298,0,0.347,0.099,0.347,0.372v7.958c0,0.274-0.049,0.373-0.347,0.373v0.174h2.437
            v-0.174c-0.274,0-0.323-0.099-0.323-0.373v-3.356H69.9c0.298,0,0.422,0.099,0.422,0.298h0.174v-2.089h-0.174
            c0,0.225-0.124,0.324-0.422,0.324h-3.655v-2.213h5.669c0.298,0,0.422,0.099,0.422,0.323h0.174v-2.063h-0.174
            c0,0.173-0.124,0.273-0.422,0.273h-7.783V41.389z"></path>
        <path fill-rule="evenodd" clip-rule="evenodd" fill="" d="M78.728,41.09c-2.872,0-5.184,1.641-5.184,4.649
            c0,3.009,2.312,4.65,5.184,4.65c2.872,0,5.184-1.641,5.184-4.65C83.912,42.732,81.6,41.09,78.728,41.09 M78.728,42.557
            c1.889,0,3.42,1.107,3.42,3.182c0,2.077-1.53,3.183-3.42,3.183c-1.889,0-3.418-1.107-3.418-3.183
            C75.309,43.664,76.839,42.557,78.728,42.557"></path>
        <path fill-rule="evenodd" clip-rule="evenodd" fill="" d="M87.657,46.411h2.561l2.275,3.245
            c0.124,0.174,0.161,0.236,0.161,0.336c0,0.049-0.025,0.098-0.174,0.098v0.174h2.761v-0.174c-0.262,0-0.36-0.123-0.536-0.372
            l-2.3-3.257c1.53-0.236,2.437-1.169,2.437-2.649c0-1.454-1.143-2.598-3.307-2.598h-5.992v0.174c0.298,0,0.349,0.099,0.349,0.372
            v7.958c0,0.274-0.05,0.372-0.349,0.372v0.174h2.463v-0.174c-0.298,0-0.349-0.098-0.349-0.372V46.411z M87.694,42.682h3.767
            c0.895,0,1.617,0.349,1.617,1.131c0,0.784-0.722,1.131-1.617,1.131h-3.767V42.682z"></path>
        <path fill="" d="M106.208,42.682h2.996c0.298,0,0.422,0.099,0.422,0.311h0.174v-2.077h-0.174
            c0,0.199-0.124,0.298-0.422,0.298h-7.757c-0.298,0-0.424-0.099-0.424-0.298h-0.174v2.077h0.174c0-0.212,0.125-0.311,0.424-0.311
            h2.996v7.037c0,0.274-0.05,0.372-0.372,0.372v0.174h2.522v-0.174c-0.323,0-0.385-0.098-0.385-0.372V42.682z"></path>
        <path fill="" d="M113.245,44.746v-2.984c0-0.273,0.062-0.372,0.361-0.372v-0.174h-2.5v0.174
            c0.324,0,0.373,0.099,0.373,0.372v7.958c0,0.273-0.049,0.372-0.373,0.372v0.174h2.5v-0.174c-0.299,0-0.361-0.099-0.361-0.372
            v-3.407h5.596v3.407c0,0.273-0.05,0.372-0.373,0.372v0.174h2.487v-0.174c-0.288,0-0.349-0.099-0.349-0.372v-7.958
            c0-0.273,0.061-0.372,0.349-0.372v-0.174h-2.487v0.174c0.323,0,0.373,0.099,0.373,0.372v2.984H113.245z"></path>
        <path fill="" d="M122.845,50.265h8.18c0.298,0,0.422,0.099,0.422,0.274h0.175V48.5h-0.175c0,0.199-0.124,0.298-0.422,0.298
            h-6.092v-2.437h3.904c0.298,0,0.422,0.099,0.422,0.298h0.174v-2.088h-0.174c0,0.225-0.124,0.323-0.422,0.323h-3.904v-2.212h5.98
            c0.297,0,0.422,0.098,0.422,0.323h0.174v-2.064h-0.174c0,0.174-0.125,0.273-0.422,0.273h-8.069v0.174
            c0.274,0,0.324,0.099,0.324,0.373v7.958c0,0.273-0.05,0.372-0.324,0.372V50.265z"></path>
        <path fill="" d="M138.037,41.389c0.298,0,0.347,0.099,0.347,0.372v7.958c0,0.274-0.049,0.373-0.347,0.373v0.174h2.436
            v-0.174c-0.273,0-0.322-0.099-0.322-0.373v-3.356h3.655c0.298,0,0.422,0.099,0.422,0.298h0.173v-2.089h-0.173
            c0,0.225-0.124,0.324-0.422,0.324h-3.655v-2.213h5.668c0.298,0,0.424,0.099,0.424,0.323h0.173v-2.063h-0.173
            c0,0.173-0.125,0.273-0.424,0.273h-7.782V41.389z"></path>
        <path fill="" d="M149.824,41.761c0-0.273,0.063-0.372,0.361-0.372v-0.175h-2.474v0.175c0.298,0,0.347,0.099,0.347,0.372
            v5.446c0,2.387,1.715,3.182,4.575,3.182c2.859,0,4.575-0.796,4.575-3.182v-5.446c0-0.273,0.049-0.372,0.349-0.372v-0.175h-2.475
            v0.175c0.298,0,0.361,0.099,0.361,0.372v5.148c0,1.467-0.572,2.015-2.81,2.015c-2.237,0-2.81-0.547-2.81-2.015V41.761z"></path>
        <path fill="" d="M164.223,42.682h2.996c0.298,0,0.422,0.099,0.422,0.311h0.174v-2.077h-0.174
            c0,0.199-0.124,0.298-0.422,0.298h-7.757c-0.298,0-0.422-0.099-0.422-0.298h-0.174v2.077h0.174c0-0.212,0.124-0.311,0.422-0.311
            h2.996v7.037c0,0.274-0.049,0.372-0.373,0.372v0.174h2.525v-0.174c-0.324,0-0.386-0.098-0.386-0.372V42.682z"></path>
        <path fill="" d="M171.236,41.761c0-0.273,0.062-0.372,0.36-0.372v-0.175h-2.473v0.175c0.298,0,0.347,0.099,0.347,0.372
            v5.446c0,2.387,1.715,3.182,4.575,3.182c2.859,0,4.574-0.796,4.574-3.182v-5.446c0-0.273,0.05-0.372,0.35-0.372v-0.175h-2.475
            v0.175c0.298,0,0.36,0.099,0.36,0.372v5.148c0,1.467-0.571,2.015-2.809,2.015c-2.238,0-2.81-0.547-2.81-2.015V41.761z"></path>
        <path fill-rule="evenodd" clip-rule="evenodd" fill="" d="M182.975,46.411h2.561l2.275,3.245
            c0.124,0.174,0.161,0.236,0.161,0.336c0,0.049-0.026,0.098-0.174,0.098v0.174h2.76v-0.174c-0.262,0-0.36-0.123-0.535-0.372
            l-2.3-3.257c1.529-0.236,2.437-1.169,2.437-2.649c0-1.454-1.143-2.598-3.307-2.598h-5.992v0.174c0.297,0,0.349,0.099,0.349,0.372
            v7.958c0,0.274-0.051,0.372-0.349,0.372v0.174h2.461v-0.174c-0.298,0-0.347-0.098-0.347-0.372V46.411z M183.011,42.682h3.767
            c0.896,0,1.617,0.349,1.617,1.131c0,0.784-0.721,1.131-1.617,1.131h-3.767V42.682z"></path>
        <path fill="" d="M191.916,50.265h8.18c0.298,0,0.422,0.099,0.422,0.274h0.174V48.5h-0.174c0,0.199-0.124,0.298-0.422,0.298
            h-6.092v-2.437h3.904c0.298,0,0.422,0.099,0.422,0.298h0.174v-2.088h-0.174c0,0.225-0.124,0.323-0.422,0.323h-3.904v-2.212h5.979
            c0.299,0,0.423,0.098,0.423,0.323h0.174v-2.064h-0.174c0,0.174-0.124,0.273-0.423,0.273h-8.068v0.174
            c0.273,0,0.322,0.099,0.322,0.373v7.958c0,0.273-0.049,0.372-0.322,0.372V50.265z"></path>
    </g>
</g>
<g id="Layer_2" display="none">
</g>
</svg>