<svg version="1.1" id="Layer_1" xmlns="http://www.w3.org/2000/svg" xmlns:xlink="http://www.w3.org/1999/xlink" x="0px" y="0px"
	 width="20px" height="9px" viewBox="0.5 560.5 20 9" enable-background="new 0.5 560.5 20 9" xml:space="preserve">
	<path fill="#CC6600" d="M4.859,564.289c-0.404,0-0.733,0.327-0.733,0.729c0,0.4,0.329,0.727,0.733,0.727s0.733-0.326,0.733-0.727
		C5.592,564.618,5.263,564.289,4.859,564.289z"/>
	<path fill="#CC6600" d="M4.572,566.947c-0.029,0.047-0.132,0.167-0.481,0.373l-0.081,0.048l0,0c0,0-0.451,0.294,0.218,0.356
		c0.001,0,0.001,0,0.002,0.001c0.306,0.031,1.888,0.189,3.036,0.189c0.244,0,0.457-0.007,0.634-0.021
		c0.511,0.642,1.478,1.606,2.661,1.606c0.022,0,0.045-0.001,0.067-0.002c0.034-0.003,0.323-0.043,0.177-0.371l-0.626-1.404
		c0.704-0.081,1.341-0.188,1.501-0.217l2.759,0.475c0,0,0.399,0.066,0.16-0.34l0,0l-0.39-0.663c0.062-0.017,0.108-0.03,0.166-0.048
		c0.042-0.014,0.092-0.027,0.16-0.047c0.443,0.092,0.799,0.141,1.059,0.141c0.13,0,0.526,0,0.66-0.273
		c0.072-0.146,0.036-0.3-0.024-0.428c0.252-0.097,0.43-0.172,0.527-0.215l2.255,0.867c0,0,0.25,0.088,0.344-0.027
		c0.065-0.093,0.032-0.184,0.021-0.215l-0.681-1.54l1.682-2.492c0.358-0.577-0.167-0.384-0.347-0.304l-0.057,0.025h0l0,0l-3.48,1.6
		c-0.539-0.227-1.077-0.428-1.616-0.606l0.344-1.213c0.125-0.441-0.335-0.242-0.335-0.242l-2.091,0.874
		c-0.795-0.203-1.601-0.314-2.378-0.364l0.271-1.618c0.06-0.357-0.227-0.354-0.282-0.352c-2.344,0.359-3.82,1.906-4.06,2.174
		c-3.35,0.584-5.303,2.047-5.486,2.189c-0.311,0.189-0.368,0.409-0.36,0.561c0.021,0.426,0.539,0.844,1.73,1.397l0.053,0.024
		l0.059-0.004c0.005-0.001,0.505-0.044,1.043-0.044C4.253,566.798,4.507,566.905,4.572,566.947z M14.4,562.631L14.4,562.631
		l0.019-0.014c0.072-0.027,0.235-0.074,0.173,0.125l0,0l-0.14,0.541c-0.324-0.1-0.641-0.191-0.963-0.274L14.4,562.631L14.4,562.631z
		 M10.002,561.018c0.102-0.01,0.216,0.02,0.183,0.215l-0.204,1.216c-1.089-0.038-2.105,0.038-2.935,0.144
		C7.575,562.118,8.605,561.35,10.002,561.018z M2.363,566.407c-1.309-0.615-1.425-0.924-1.43-1.005
		c-0.003-0.068,0.1-0.141,0.162-0.178l0.023-0.016c0.017-0.014,1.474-1.147,4.03-1.83c0.42-0.105,2.426-0.566,4.759-0.497
		l-0.001,0.007l0.239,0.015c2.052,0.134,4.16,0.655,6.264,1.552l0.089,0.039l2.765-1.271c0.118-0.047,0.299-0.09,0.101,0.204
		c0,0.001-0.001,0.001-0.001,0.001l-1.162,1.721l0.444,1.004c0.094,0.213-0.021,0.205-0.099,0.182l-1.807-0.695l-0.084,0.04
		c-0.003,0.001-0.293,0.139-0.828,0.333l-0.018,0.008c-0.259,0.097-0.125,0.27-0.123,0.271l0.044,0.057
		c0.09,0.114,0.117,0.18,0.125,0.209c-0.029,0.014-0.102,0.035-0.263,0.035c-0.24,0-0.583-0.048-1.021-0.143l-0.053-0.012
		l-0.053,0.016c-0.099,0.027-0.164,0.048-0.218,0.064c-0.114,0.033-0.176,0.053-0.423,0.112l-0.058,0.015c0,0,0,0-0.001,0
		c-0.221,0.054-0.113,0.242-0.111,0.246l0.232,0.393c0,0.001,0,0.001,0,0.001c0.083,0.141-0.003,0.157-0.071,0.151l-2.137-0.367
		l-0.038,0.008c-0.009,0.001-0.9,0.159-1.803,0.25l-0.016,0.002c-0.268,0.029-0.18,0.257-0.179,0.258l0.54,1.211
		c0.109,0.246-0.145,0.191-0.186,0.182c-0.764-0.243-1.399-0.912-1.73-1.318c0-0.001,0-0.001,0-0.001
		c-0.157-0.183-0.384-0.193-0.466-0.19c-0.009,0-0.021,0.001-0.03,0.002c-0.001,0-0.004,0-0.004,0l0,0
		c-0.124,0.009-0.312,0.014-0.503,0.014c-0.809,0-1.841-0.08-2.471-0.138c0.162-0.155,0.262-0.327,0.21-0.515
		c-0.09-0.326-0.574-0.465-1.618-0.465C2.934,566.367,2.518,566.395,2.363,566.407z"/>
</svg>
