<svg version="1.1" id="Layer_1" xmlns="http://www.w3.org/2000/svg" xmlns:xlink="http://www.w3.org/1999/xlink" x="0px" y="0px"
	 width="20px" height="9px" viewBox="-469.5 285 20 9" enable-background="new -469.5 285 20 9" xml:space="preserve">
	<path fill="#CC6600" d="M-465.429,291.447c-0.029,0.047-0.132,0.167-0.481,0.373l-0.081,0.048l0,0c0,0-0.451,0.294,0.218,0.355
		c0.001,0,0.001,0,0.002,0.001c0.306,0.031,1.888,0.189,3.036,0.189c0.244,0,0.457-0.007,0.634-0.021
		c0.511,0.643,1.478,1.606,2.661,1.606c0.022,0,0.045-0.001,0.067-0.002c0.034-0.003,0.323-0.043,0.177-0.371l-0.625-1.404
		c0.704-0.081,1.341-0.188,1.501-0.217l2.76,0.476c0,0,0.398,0.065,0.16-0.341l0,0l-0.391-0.663c0.062-0.017,0.107-0.029,0.166-0.048
		c0.042-0.014,0.092-0.026,0.16-0.047c0.443,0.092,0.799,0.142,1.059,0.142c0.131,0,0.526,0,0.66-0.273
		c0.072-0.146,0.036-0.3-0.023-0.428c0.252-0.098,0.43-0.172,0.526-0.215l2.255,0.866c0,0,0.25,0.089,0.344-0.026
		c0.065-0.094,0.033-0.185,0.021-0.215l-0.682-1.54l1.683-2.492c0.358-0.577-0.167-0.384-0.347-0.304l-0.057,0.024l0,0l0,0
		l-3.48,1.601c-0.539-0.228-1.077-0.429-1.616-0.606l0.345-1.213c0.125-0.441-0.336-0.242-0.336-0.242l-2.091,0.874
		c-0.795-0.203-1.601-0.314-2.378-0.364l0.271-1.618c0.06-0.356-0.228-0.354-0.282-0.352c-2.344,0.359-3.82,1.906-4.06,2.174
		c-3.35,0.584-5.303,2.047-5.486,2.189c-0.311,0.188-0.368,0.409-0.36,0.561c0.021,0.426,0.539,0.844,1.73,1.397l0.053,0.023
		l0.059-0.004c0.005-0.001,0.505-0.044,1.043-0.044C-465.748,291.298-465.494,291.405-465.429,291.447z"/>
	<path fill="#FFFFFF" d="M-465.142,288.789c-0.404,0-0.733,0.327-0.733,0.729c0,0.4,0.329,0.728,0.733,0.728
		c0.404,0,0.733-0.326,0.733-0.728C-464.409,289.118-464.737,288.789-465.142,288.789z"/>
	<path fill="#CC6600" d="M-455.6,287.131L-455.6,287.131l0.019-0.014c0.072-0.027,0.235-0.074,0.173,0.125l0,0l-0.14,0.541
		c-0.324-0.101-0.642-0.191-0.964-0.274L-455.6,287.131L-455.6,287.131z"/>
	<path fill="#CC6600" d="M-459.999,285.518c0.102-0.01,0.216,0.021,0.183,0.216l-0.204,1.216c-1.089-0.038-2.105,0.038-2.935,0.144
	C-462.425,286.618-461.396,285.85-459.999,285.518z"/>
</svg>
