<?xml version="1.0" encoding="utf-8"?>
<!-- Generator: Adobe Illustrator 16.0.0, SVG Export Plug-In . SVG Version: 6.00 Build 0)  -->
<!DOCTYPE svg PUBLIC "-//W3C//DTD SVG 1.1//EN" "http://www.w3.org/Graphics/SVG/1.1/DTD/svg11.dtd">
<svg version="1.1" id="Layer_1" xmlns="http://www.w3.org/2000/svg" xmlns:xlink="http://www.w3.org/1999/xlink" x="0px" y="0px"
	 width="20px" height="9px" viewBox="-469.5 285 20 9" enable-background="new -469.5 285 20 9" xml:space="preserve">
<path fill="#CC6600" d="M-465.142,288.789c-0.404,0-0.733,0.327-0.733,0.729c0,0.4,0.329,0.728,0.733,0.728
	c0.404,0,0.733-0.326,0.733-0.728C-464.409,289.118-464.737,288.789-465.142,288.789z"/>
<path fill="#CC6600" d="M-458.189,287.344"/>
<path fill="#CC6600" d="M-458.189,291.766"/>
<path fill="#CC6600" d="M-458.189,287.797"/>
<path fill="#CC6600" d="M-457.203,292.203"/>
<path fill="#CC6600" d="M-457.203,287.328"/>
<path fill="#CC6600" d="M-457.196,287.807"/>
<path fill="#CC6600" d="M-457.203,291.781"/>
<g>
	<defs>
		<rect id="SVGID_1_" x="-457.188" y="285" width="7.688" height="9"/>
	</defs>
	<clipPath id="SVGID_2_">
		<use xlink:href="#SVGID_1_"  overflow="visible"/>
	</clipPath>
	<path clip-path="url(#SVGID_2_)" fill="#CC6600" d="M-457.203,292.203l1.642,0.277c0,0,0.398,0.065,0.16-0.341l0,0l-0.391-0.663
		c0.062-0.017,0.107-0.029,0.166-0.048c0.042-0.014,0.092-0.026,0.16-0.047c0.443,0.092,0.799,0.142,1.059,0.142
		c0.131,0,0.526,0,0.66-0.273c0.072-0.146,0.036-0.3-0.023-0.428c0.252-0.098,0.43-0.172,0.526-0.215l2.255,0.866
		c0,0,0.25,0.089,0.344-0.026c0.065-0.094,0.033-0.185,0.021-0.215l-0.682-1.54l1.683-2.492c0.358-0.577-0.167-0.384-0.347-0.304
		l-0.057,0.024l0,0l0,0l-3.48,1.601c-0.539-0.228-1.077-0.429-1.616-0.606l0.345-1.213c0.125-0.441-0.336-0.242-0.336-0.242
		l-2.089,0.868 M-455.6,287.131L-455.6,287.131l0.019-0.014c0.072-0.027,0.235-0.074,0.173,0.125l0,0l-0.14,0.541
		c-0.324-0.101-0.642-0.191-0.964-0.274L-455.6,287.131L-455.6,287.131z M-457.196,287.807c1.208,0.266,2.387,0.629,3.605,1.148
		l0.089,0.039l2.766-1.271c0.117-0.047,0.299-0.09,0.1,0.204c0,0.001,0,0.001,0,0.001l-1.162,1.722l0.443,1.004
		c0.094,0.213-0.021,0.205-0.099,0.182l-1.808-0.695l-0.084,0.04c-0.002,0.001-0.293,0.14-0.827,0.333l-0.019,0.009
		c-0.259,0.097-0.125,0.27-0.123,0.271l0.045,0.057c0.09,0.114,0.117,0.181,0.125,0.209c-0.029,0.015-0.103,0.035-0.264,0.035
		c-0.24,0-0.583-0.048-1.021-0.143l-0.053-0.013l-0.053,0.017c-0.099,0.026-0.164,0.048-0.218,0.063
		c-0.114,0.033-0.177,0.054-0.423,0.112l-0.059,0.015l0,0c-0.222,0.055-0.113,0.242-0.111,0.246l0.232,0.394
		c0,0.001,0,0.001,0,0.001c0.082,0.141-0.004,0.156-0.072,0.15l-0.611-0.123l-0.406-0.031"/>
</g>
<g>
	<defs>
		<rect id="SVGID_3_" x="-469.48" y="285" width="12.297" height="9"/>
	</defs>
	<clipPath id="SVGID_4_">
		<use xlink:href="#SVGID_3_"  overflow="visible"/>
	</clipPath>
	<path clip-path="url(#SVGID_4_)" fill="#CC6600" d="M-457.169,287.344c-0.795-0.203-1.616-0.324-2.394-0.374l0.271-1.618
		c0.06-0.356-0.228-0.354-0.282-0.352c-2.344,0.359-3.82,1.906-4.06,2.174c-3.35,0.584-5.303,2.047-5.486,2.189
		c-0.311,0.188-0.368,0.409-0.36,0.561c0.021,0.426,0.539,0.844,1.73,1.397l0.053,0.023l0.059-0.004
		c0.005-0.001,0.505-0.044,1.043-0.044c0.867,0.001,1.121,0.108,1.186,0.15c-0.029,0.047-0.132,0.167-0.481,0.373l-0.081,0.048l0,0
		c0,0-0.451,0.294,0.218,0.355c0.001,0,0.001,0,0.002,0.001c0.306,0.031,1.888,0.189,3.036,0.189c0.244,0,0.457-0.007,0.634-0.021
		c0.511,0.643,1.478,1.606,2.661,1.606c0.022,0,0.045-0.001,0.067-0.002c0.034-0.003,0.323-0.043,0.177-0.371l-0.625-1.404
		c0.704-0.081,1.341-0.188,1.501-0.217l1.131,0.198 M-459.979,285.518c0.102-0.01,0.216,0.021,0.183,0.216l-0.204,1.216
		c-1.089-0.038-2.105,0.038-2.935,0.144C-462.405,286.618-461.375,285.85-459.979,285.518z M-457.169,291.766l-1.133-0.196
		l-0.037,0.008c-0.01,0.001-0.901,0.159-1.804,0.25l-0.016,0.002c-0.268,0.028-0.18,0.257-0.179,0.258l0.54,1.211
		c0.109,0.246-0.145,0.191-0.186,0.182c-0.764-0.242-1.399-0.911-1.73-1.317c0-0.001,0-0.001,0-0.001
		c-0.157-0.184-0.384-0.193-0.466-0.19c-0.009,0-0.021,0.001-0.03,0.002c-0.001,0-0.004,0-0.004,0l0,0
		c-0.124,0.01-0.312,0.015-0.503,0.015c-0.809,0-1.841-0.08-2.471-0.139c0.162-0.154,0.262-0.327,0.21-0.515
		c-0.09-0.326-0.574-0.465-1.618-0.465c-0.45-0.002-0.866,0.025-1.021,0.038c-1.309-0.615-1.425-0.924-1.43-1.005
		c-0.003-0.068,0.1-0.142,0.162-0.179l0.023-0.016c0.017-0.014,1.474-1.147,4.03-1.83c0.42-0.104,2.426-0.565,4.759-0.497
		l-0.001,0.007l0.239,0.016c0.865,0.057,1.787,0.201,2.667,0.394"/>
</g>
</svg>
