<svg version="1.1" id="Layer_1" xmlns="http://www.w3.org/2000/svg" xmlns:xlink="http://www.w3.org/1999/xlink" x="0px" y="0px"
	 width="20px" height="9px" viewBox="0 0 20 9" enable-background="new 0 0 20 9" xml:space="preserve">
<path fill="#CC6600" d="M4.338,3.789c-0.404,0-0.733,0.327-0.733,0.729c0,0.4,0.329,0.729,0.733,0.729
	c0.404,0,0.733-0.326,0.733-0.729C5.071,4.118,4.743,3.789,4.338,3.789z"/>
<path fill="#CC6600" d="M11.291,2.344"/>
<path fill="#CC6600" d="M11.291,6.766"/>
<path fill="#CC6600" d="M11.291,2.797"/>
<path fill="#CC6600" d="M12.277,7.203"/>
<path fill="#CC6600" d="M12.277,2.328"/>
<path fill="#CC6600" d="M12.284,2.807"/>
<path fill="#CC6600" d="M12.277,6.781"/>
<g>
	<g>
		<g class="shark-tail">
			<defs>
				<rect id="SVGID_1_" x="12.292" width="7.688" height="9"/>
			</defs>
			<clipPath id="SVGID_2_">
				<use xlink:href="#SVGID_1_"  overflow="visible"/>
			</clipPath>
			<path clip-path="url(#SVGID_2_)" fill="#CC6600" d="M12.277,7.203l1.642,0.277c0,0,0.397,0.063,0.16-0.342l0,0l-0.392-0.662
				c0.062-0.019,0.106-0.029,0.166-0.05c0.043-0.014,0.092-0.024,0.16-0.047c0.442,0.093,0.799,0.144,1.059,0.144
				c0.132,0,0.527,0,0.66-0.273c0.072-0.146,0.037-0.3-0.022-0.428c0.252-0.098,0.431-0.172,0.526-0.215l2.254,0.865
				c0,0,0.25,0.09,0.345-0.025c0.065-0.094,0.033-0.187,0.021-0.215l-0.682-1.542L19.857,2.2c0.356-0.577-0.168-0.384-0.349-0.304
				L19.453,1.92l0,0l0,0l-3.48,1.602c-0.539-0.229-1.076-0.43-1.615-0.606l0.346-1.213c0.125-0.441-0.337-0.242-0.337-0.242
				l-2.089,0.868 M13.88,2.131L13.88,2.131l0.019-0.014c0.072-0.027,0.235-0.074,0.175,0.125l0,0l-0.142,0.541
				c-0.324-0.102-0.642-0.191-0.964-0.274L13.88,2.131L13.88,2.131z M12.284,2.807c1.208,0.267,2.387,0.629,3.604,1.148l0.09,0.039
				l2.766-1.271c0.117-0.047,0.299-0.09,0.1,0.205l0,0L17.682,4.65l0.443,1.004c0.094,0.213-0.021,0.205-0.1,0.182l-1.809-0.695
				l-0.084,0.041c-0.002,0-0.293,0.141-0.826,0.332l-0.02,0.01c-0.26,0.098-0.125,0.271-0.123,0.271l0.045,0.059
				c0.09,0.112,0.117,0.181,0.125,0.209c-0.027,0.015-0.104,0.035-0.266,0.035c-0.238,0-0.582-0.05-1.021-0.145l-0.053-0.014
				l-0.054,0.018c-0.1,0.025-0.164,0.048-0.217,0.062c-0.115,0.033-0.179,0.055-0.425,0.111l-0.059,0.016l0,0
				c-0.224,0.056-0.113,0.242-0.111,0.246l0.231,0.395c0,0.001,0,0.001,0,0.001c0.082,0.142-0.004,0.155-0.071,0.149l-0.61-0.123
				l-0.406-0.03"/>
		</g>
	</g>
</g>
<g>
	<g>
		<g>
			<defs>
				<rect id="SVGID_3_" width="12.297" height="9"/>
			</defs>
			<clipPath id="SVGID_4_">
				<use xlink:href="#SVGID_3_"  overflow="visible"/>
			</clipPath>
			<path clip-path="url(#SVGID_4_)" fill="#CC6600" d="M12.311,2.344c-0.795-0.203-1.615-0.324-2.394-0.373l0.271-1.619
				C10.248-0.004,9.96-0.002,9.906,0c-2.344,0.359-3.82,1.906-4.06,2.174C2.496,2.758,0.543,4.221,0.36,4.363
				C0.049,4.551-0.008,4.771,0,4.924C0.021,5.35,0.539,5.768,1.73,6.32l0.053,0.022L1.842,6.34c0.005-0.001,0.505-0.044,1.043-0.044
				c0.867,0.001,1.121,0.108,1.186,0.149C4.042,6.493,3.939,6.613,3.59,6.818L3.509,6.867l0,0c0,0-0.451,0.294,0.218,0.355
				c0.001,0,0.001,0,0.002,0c0.306,0.03,1.888,0.188,3.036,0.188c0.244,0,0.457-0.007,0.634-0.021
				C7.91,8.034,8.877,8.997,10.06,8.997c0.022,0,0.045-0.001,0.067-0.002c0.034-0.003,0.323-0.043,0.177-0.371L9.679,7.221
				c0.704-0.082,1.34-0.188,1.5-0.218l1.131,0.198 M9.501,0.518c0.102-0.01,0.216,0.021,0.183,0.217L9.48,1.95
				C8.391,1.912,7.375,1.988,6.545,2.094C7.075,1.618,8.105,0.85,9.501,0.518z M12.311,6.766L11.178,6.57l-0.037,0.008
				c-0.01,0.001-0.9,0.158-1.804,0.25L9.321,6.83c-0.268,0.027-0.18,0.257-0.179,0.258l0.54,1.211
				C9.791,8.545,9.537,8.49,9.496,8.48c-0.764-0.242-1.399-0.91-1.73-1.316c0-0.001,0-0.001,0-0.001
				C7.609,6.979,7.382,6.971,7.3,6.973c-0.009,0-0.021,0.002-0.03,0.002c-0.001,0-0.004,0-0.004,0l0,0
				C7.142,6.984,6.954,6.99,6.763,6.99c-0.809,0-1.841-0.08-2.471-0.139c0.162-0.154,0.262-0.328,0.21-0.517
				C4.412,6.01,3.928,5.871,2.884,5.871c-0.45-0.002-0.866,0.025-1.021,0.038c-1.309-0.615-1.425-0.925-1.43-1.005
				c-0.003-0.068,0.1-0.143,0.162-0.18l0.023-0.016c0.017-0.014,1.474-1.146,4.03-1.83c0.42-0.104,2.426-0.564,4.759-0.497
				L9.406,2.389l0.239,0.016c0.865,0.058,1.787,0.201,2.667,0.395"/>
		</g>
	</g>
</g>
</svg>
